<mxfile host="app.diagrams.net" modified="2022-03-10T12:44:23.776Z" agent="5.0 (Windows NT 10.0; Win64; x64) AppleWebKit/537.36 (KHTML, like Gecko) Chrome/98.0.4758.102 Safari/537.36" etag="bAdY5yOjRh1bQeBbo07I" version="16.6.1" type="github">
  <diagram id="LlxN4Xk1ga-5OPZalQ_0" name="Page-1">
    <mxGraphModel dx="1796" dy="666" grid="1" gridSize="10" guides="1" tooltips="1" connect="1" arrows="1" fold="1" page="1" pageScale="1" pageWidth="827" pageHeight="1169" math="0" shadow="0">
      <root>
        <mxCell id="0" />
        <mxCell id="1" parent="0" />
        <mxCell id="WGl6a4nc6GBgOmt1d6os-1" value="EU2&lt;br&gt;TSDB-2" style="rounded=0;whiteSpace=wrap;html=1;" parent="1" vertex="1">
          <mxGeometry x="270" y="120" width="250" height="60" as="geometry" />
        </mxCell>
        <mxCell id="aKmKhUfRBQB-kWX-e5mU-1" value="CN5&lt;br&gt;TSDB-1" style="rounded=0;whiteSpace=wrap;html=1;" parent="1" vertex="1">
          <mxGeometry x="20" y="120" width="220" height="60" as="geometry" />
        </mxCell>
        <mxCell id="aKmKhUfRBQB-kWX-e5mU-2" value="LONGYUAN&lt;br&gt;TSDB-3" style="rounded=0;whiteSpace=wrap;html=1;" parent="1" vertex="1">
          <mxGeometry x="550" y="120" width="260" height="60" as="geometry" />
        </mxCell>
        <mxCell id="aKmKhUfRBQB-kWX-e5mU-3" value="" style="rounded=0;whiteSpace=wrap;html=1;" parent="1" vertex="1">
          <mxGeometry x="30" y="230" width="420" height="140" as="geometry" />
        </mxCell>
        <mxCell id="aKmKhUfRBQB-kWX-e5mU-5" value="TSDB-1" style="rounded=0;whiteSpace=wrap;html=1;" parent="1" vertex="1">
          <mxGeometry x="120" y="260" width="80" height="30" as="geometry" />
        </mxCell>
        <mxCell id="aKmKhUfRBQB-kWX-e5mU-6" value="TSDB-2" style="rounded=0;whiteSpace=wrap;html=1;" parent="1" vertex="1">
          <mxGeometry x="240" y="260" width="80" height="30" as="geometry" />
        </mxCell>
        <mxCell id="aKmKhUfRBQB-kWX-e5mU-7" value="TSDB-3" style="rounded=0;whiteSpace=wrap;html=1;" parent="1" vertex="1">
          <mxGeometry x="360" y="260" width="80" height="30" as="geometry" />
        </mxCell>
        <mxCell id="aKmKhUfRBQB-kWX-e5mU-8" value="" style="curved=1;endArrow=classic;html=1;rounded=0;exitX=0.5;exitY=0;exitDx=0;exitDy=0;entryX=0.425;entryY=1.033;entryDx=0;entryDy=0;entryPerimeter=0;" parent="1" source="aKmKhUfRBQB-kWX-e5mU-5" target="aKmKhUfRBQB-kWX-e5mU-1" edge="1">
          <mxGeometry width="50" height="50" relative="1" as="geometry">
            <mxPoint x="370" y="340" as="sourcePoint" />
            <mxPoint x="420" y="290" as="targetPoint" />
            <Array as="points">
              <mxPoint x="40" y="280" />
              <mxPoint x="180" y="230" />
            </Array>
          </mxGeometry>
        </mxCell>
        <mxCell id="aKmKhUfRBQB-kWX-e5mU-9" value="" style="curved=1;endArrow=classic;html=1;rounded=0;exitX=1;exitY=0.75;exitDx=0;exitDy=0;entryX=0.5;entryY=1;entryDx=0;entryDy=0;" parent="1" source="aKmKhUfRBQB-kWX-e5mU-6" target="WGl6a4nc6GBgOmt1d6os-1" edge="1">
          <mxGeometry width="50" height="50" relative="1" as="geometry">
            <mxPoint x="280" y="448.02" as="sourcePoint" />
            <mxPoint x="281" y="220" as="targetPoint" />
            <Array as="points">
              <mxPoint x="350" y="308.02" />
            </Array>
          </mxGeometry>
        </mxCell>
        <mxCell id="aKmKhUfRBQB-kWX-e5mU-11" value="CN5&lt;br&gt;TSDB-0" style="rounded=0;whiteSpace=wrap;html=1;" parent="1" vertex="1">
          <mxGeometry x="20" y="30" width="220" height="60" as="geometry" />
        </mxCell>
        <mxCell id="aKmKhUfRBQB-kWX-e5mU-12" value="EU2&lt;br&gt;TSDB-0" style="rounded=0;whiteSpace=wrap;html=1;" parent="1" vertex="1">
          <mxGeometry x="270" y="30" width="250" height="60" as="geometry" />
        </mxCell>
        <mxCell id="aKmKhUfRBQB-kWX-e5mU-13" value="LONGYUAN&lt;br&gt;TSDB-0" style="rounded=0;whiteSpace=wrap;html=1;" parent="1" vertex="1">
          <mxGeometry x="550" y="30" width="260" height="60" as="geometry" />
        </mxCell>
        <mxCell id="aKmKhUfRBQB-kWX-e5mU-16" value="" style="shape=flexArrow;endArrow=classic;html=1;rounded=0;width=7;endSize=5.67;" parent="1" edge="1">
          <mxGeometry width="50" height="50" relative="1" as="geometry">
            <mxPoint x="120" y="90" as="sourcePoint" />
            <mxPoint x="120" y="130" as="targetPoint" />
          </mxGeometry>
        </mxCell>
        <mxCell id="aKmKhUfRBQB-kWX-e5mU-19" value="" style="shape=flexArrow;endArrow=classic;html=1;rounded=0;" parent="1" edge="1">
          <mxGeometry width="50" height="50" relative="1" as="geometry">
            <mxPoint x="690" y="90" as="sourcePoint" />
            <mxPoint x="690" y="130" as="targetPoint" />
          </mxGeometry>
        </mxCell>
        <mxCell id="aKmKhUfRBQB-kWX-e5mU-22" value="" style="shape=flexArrow;endArrow=classic;html=1;rounded=0;" parent="1" edge="1">
          <mxGeometry width="50" height="50" relative="1" as="geometry">
            <mxPoint x="394.5" y="80" as="sourcePoint" />
            <mxPoint x="394.5" y="130" as="targetPoint" />
          </mxGeometry>
        </mxCell>
        <mxCell id="aKmKhUfRBQB-kWX-e5mU-23" value="" style="rounded=0;whiteSpace=wrap;html=1;" parent="1" vertex="1">
          <mxGeometry x="980" y="1310" width="300" height="260" as="geometry" />
        </mxCell>
        <mxCell id="aKmKhUfRBQB-kWX-e5mU-24" value="0-1" style="rounded=1;whiteSpace=wrap;html=1;" parent="1" vertex="1">
          <mxGeometry x="1000" y="1340" width="120" height="60" as="geometry" />
        </mxCell>
        <mxCell id="aKmKhUfRBQB-kWX-e5mU-25" value="0-2" style="rounded=1;whiteSpace=wrap;html=1;" parent="1" vertex="1">
          <mxGeometry x="1000" y="1410" width="120" height="60" as="geometry" />
        </mxCell>
        <mxCell id="aKmKhUfRBQB-kWX-e5mU-26" value="0-3" style="rounded=1;whiteSpace=wrap;html=1;" parent="1" vertex="1">
          <mxGeometry x="1000" y="1490" width="120" height="60" as="geometry" />
        </mxCell>
        <mxCell id="aKmKhUfRBQB-kWX-e5mU-27" value="1-2" style="rounded=1;whiteSpace=wrap;html=1;" parent="1" vertex="1">
          <mxGeometry x="1140" y="1340" width="120" height="60" as="geometry" />
        </mxCell>
        <mxCell id="aKmKhUfRBQB-kWX-e5mU-28" value="1-3" style="rounded=1;whiteSpace=wrap;html=1;" parent="1" vertex="1">
          <mxGeometry x="1140" y="1410" width="120" height="60" as="geometry" />
        </mxCell>
        <mxCell id="aKmKhUfRBQB-kWX-e5mU-29" value="2-3" style="rounded=1;whiteSpace=wrap;html=1;" parent="1" vertex="1">
          <mxGeometry x="1140" y="1490" width="120" height="60" as="geometry" />
        </mxCell>
        <mxCell id="aKmKhUfRBQB-kWX-e5mU-30" value="排列组合--Sandbox" style="text;html=1;strokeColor=none;fillColor=none;align=center;verticalAlign=middle;whiteSpace=wrap;rounded=0;" parent="1" vertex="1">
          <mxGeometry x="540" y="570" width="150" height="30" as="geometry" />
        </mxCell>
        <mxCell id="aKmKhUfRBQB-kWX-e5mU-31" value="" style="curved=1;endArrow=classic;html=1;rounded=0;exitX=1;exitY=0.5;exitDx=0;exitDy=0;entryX=0.5;entryY=1;entryDx=0;entryDy=0;" parent="1" source="aKmKhUfRBQB-kWX-e5mU-7" target="aKmKhUfRBQB-kWX-e5mU-2" edge="1">
          <mxGeometry width="50" height="50" relative="1" as="geometry">
            <mxPoint x="440" y="342.5" as="sourcePoint" />
            <mxPoint x="585" y="180" as="targetPoint" />
            <Array as="points">
              <mxPoint x="540" y="308.02" />
            </Array>
          </mxGeometry>
        </mxCell>
        <mxCell id="aKmKhUfRBQB-kWX-e5mU-32" value="" style="endArrow=none;html=1;rounded=0;" parent="1" edge="1">
          <mxGeometry width="50" height="50" relative="1" as="geometry">
            <mxPoint x="120" y="320" as="sourcePoint" />
            <mxPoint x="440" y="320" as="targetPoint" />
          </mxGeometry>
        </mxCell>
        <mxCell id="aKmKhUfRBQB-kWX-e5mU-33" value="01.01" style="text;html=1;strokeColor=none;fillColor=none;align=center;verticalAlign=middle;whiteSpace=wrap;rounded=0;" parent="1" vertex="1">
          <mxGeometry x="130" y="320" width="60" height="30" as="geometry" />
        </mxCell>
        <mxCell id="aKmKhUfRBQB-kWX-e5mU-34" value="02.01" style="text;html=1;strokeColor=none;fillColor=none;align=center;verticalAlign=middle;whiteSpace=wrap;rounded=0;" parent="1" vertex="1">
          <mxGeometry x="251" y="320" width="60" height="30" as="geometry" />
        </mxCell>
        <mxCell id="aKmKhUfRBQB-kWX-e5mU-35" value="03.01" style="text;html=1;strokeColor=none;fillColor=none;align=center;verticalAlign=middle;whiteSpace=wrap;rounded=0;" parent="1" vertex="1">
          <mxGeometry x="367" y="320" width="60" height="30" as="geometry" />
        </mxCell>
        <mxCell id="lfAW5IKE7f6hieiJ0yy1-2" value="Lab" style="text;html=1;strokeColor=none;fillColor=none;align=center;verticalAlign=middle;whiteSpace=wrap;rounded=0;" vertex="1" parent="1">
          <mxGeometry x="40" y="300" width="60" height="30" as="geometry" />
        </mxCell>
        <mxCell id="lfAW5IKE7f6hieiJ0yy1-3" value="" style="endArrow=none;html=1;rounded=0;" edge="1" parent="1">
          <mxGeometry width="50" height="50" relative="1" as="geometry">
            <mxPoint x="181" y="274.5" as="sourcePoint" />
            <mxPoint x="251" y="274.5" as="targetPoint" />
          </mxGeometry>
        </mxCell>
        <mxCell id="lfAW5IKE7f6hieiJ0yy1-4" value="" style="endArrow=none;html=1;rounded=0;" edge="1" parent="1">
          <mxGeometry width="50" height="50" relative="1" as="geometry">
            <mxPoint x="305" y="274.5" as="sourcePoint" />
            <mxPoint x="375" y="274.5" as="targetPoint" />
          </mxGeometry>
        </mxCell>
        <mxCell id="lfAW5IKE7f6hieiJ0yy1-5" value="" style="endArrow=none;html=1;rounded=0;" edge="1" parent="1">
          <mxGeometry width="50" height="50" relative="1" as="geometry">
            <mxPoint x="10" y="440" as="sourcePoint" />
            <mxPoint x="1320" y="440" as="targetPoint" />
          </mxGeometry>
        </mxCell>
        <mxCell id="lfAW5IKE7f6hieiJ0yy1-6" value="" style="rounded=0;whiteSpace=wrap;html=1;" vertex="1" parent="1">
          <mxGeometry x="160" y="920" width="420" height="130" as="geometry" />
        </mxCell>
        <mxCell id="lfAW5IKE7f6hieiJ0yy1-7" value="TSDB-1" style="rounded=0;whiteSpace=wrap;html=1;" vertex="1" parent="1">
          <mxGeometry x="250" y="940" width="80" height="30" as="geometry" />
        </mxCell>
        <mxCell id="lfAW5IKE7f6hieiJ0yy1-8" value="TSDB-2" style="rounded=0;whiteSpace=wrap;html=1;" vertex="1" parent="1">
          <mxGeometry x="370" y="940" width="80" height="30" as="geometry" />
        </mxCell>
        <mxCell id="lfAW5IKE7f6hieiJ0yy1-9" value="TSDB-3" style="rounded=0;whiteSpace=wrap;html=1;" vertex="1" parent="1">
          <mxGeometry x="490" y="940" width="80" height="30" as="geometry" />
        </mxCell>
        <mxCell id="lfAW5IKE7f6hieiJ0yy1-10" value="" style="endArrow=none;html=1;rounded=0;" edge="1" parent="1">
          <mxGeometry width="50" height="50" relative="1" as="geometry">
            <mxPoint x="250" y="1000" as="sourcePoint" />
            <mxPoint x="570" y="1000" as="targetPoint" />
          </mxGeometry>
        </mxCell>
        <mxCell id="lfAW5IKE7f6hieiJ0yy1-11" value="01.01" style="text;html=1;strokeColor=none;fillColor=none;align=center;verticalAlign=middle;whiteSpace=wrap;rounded=0;" vertex="1" parent="1">
          <mxGeometry x="260" y="1000" width="60" height="30" as="geometry" />
        </mxCell>
        <mxCell id="lfAW5IKE7f6hieiJ0yy1-12" value="02.01" style="text;html=1;strokeColor=none;fillColor=none;align=center;verticalAlign=middle;whiteSpace=wrap;rounded=0;" vertex="1" parent="1">
          <mxGeometry x="381" y="1000" width="60" height="30" as="geometry" />
        </mxCell>
        <mxCell id="lfAW5IKE7f6hieiJ0yy1-13" value="03.01" style="text;html=1;strokeColor=none;fillColor=none;align=center;verticalAlign=middle;whiteSpace=wrap;rounded=0;" vertex="1" parent="1">
          <mxGeometry x="497" y="1000" width="60" height="30" as="geometry" />
        </mxCell>
        <mxCell id="lfAW5IKE7f6hieiJ0yy1-14" value="Text" style="text;html=1;strokeColor=none;fillColor=none;align=center;verticalAlign=middle;whiteSpace=wrap;rounded=0;" vertex="1" parent="1">
          <mxGeometry x="510" y="980" width="60" height="30" as="geometry" />
        </mxCell>
        <mxCell id="lfAW5IKE7f6hieiJ0yy1-15" value="Lab" style="text;html=1;strokeColor=none;fillColor=none;align=center;verticalAlign=middle;whiteSpace=wrap;rounded=0;" vertex="1" parent="1">
          <mxGeometry x="170" y="980" width="60" height="30" as="geometry" />
        </mxCell>
        <mxCell id="lfAW5IKE7f6hieiJ0yy1-16" value="" style="endArrow=none;html=1;rounded=0;" edge="1" parent="1">
          <mxGeometry width="50" height="50" relative="1" as="geometry">
            <mxPoint x="311" y="954.5" as="sourcePoint" />
            <mxPoint x="381" y="954.5" as="targetPoint" />
          </mxGeometry>
        </mxCell>
        <mxCell id="lfAW5IKE7f6hieiJ0yy1-17" value="" style="endArrow=none;html=1;rounded=0;" edge="1" parent="1">
          <mxGeometry width="50" height="50" relative="1" as="geometry">
            <mxPoint x="435" y="954.5" as="sourcePoint" />
            <mxPoint x="505" y="954.5" as="targetPoint" />
          </mxGeometry>
        </mxCell>
        <mxCell id="lfAW5IKE7f6hieiJ0yy1-18" value="EU2&lt;br&gt;TSDB-1" style="rounded=0;whiteSpace=wrap;html=1;" vertex="1" parent="1">
          <mxGeometry x="270" y="570" width="250" height="60" as="geometry" />
        </mxCell>
        <mxCell id="lfAW5IKE7f6hieiJ0yy1-19" value="CN5&lt;br&gt;TSDB-1" style="rounded=0;whiteSpace=wrap;html=1;" vertex="1" parent="1">
          <mxGeometry x="20" y="570" width="220" height="60" as="geometry" />
        </mxCell>
        <mxCell id="lfAW5IKE7f6hieiJ0yy1-20" value="LONGYUAN&lt;br&gt;TSDB-1" style="rounded=0;whiteSpace=wrap;html=1;" vertex="1" parent="1">
          <mxGeometry x="550" y="570" width="260" height="60" as="geometry" />
        </mxCell>
        <mxCell id="lfAW5IKE7f6hieiJ0yy1-21" value="CN5&lt;br&gt;TSDB-0" style="rounded=0;whiteSpace=wrap;html=1;" vertex="1" parent="1">
          <mxGeometry x="20" y="480" width="220" height="60" as="geometry" />
        </mxCell>
        <mxCell id="lfAW5IKE7f6hieiJ0yy1-22" value="EU2&lt;br&gt;TSDB-0" style="rounded=0;whiteSpace=wrap;html=1;" vertex="1" parent="1">
          <mxGeometry x="270" y="480" width="250" height="60" as="geometry" />
        </mxCell>
        <mxCell id="lfAW5IKE7f6hieiJ0yy1-23" value="LONGYUAN&lt;br&gt;TSDB-0" style="rounded=0;whiteSpace=wrap;html=1;" vertex="1" parent="1">
          <mxGeometry x="550" y="480" width="260" height="60" as="geometry" />
        </mxCell>
        <mxCell id="lfAW5IKE7f6hieiJ0yy1-24" value="" style="shape=flexArrow;endArrow=classic;html=1;rounded=0;width=7;endSize=5.67;" edge="1" parent="1">
          <mxGeometry width="50" height="50" relative="1" as="geometry">
            <mxPoint x="120" y="540" as="sourcePoint" />
            <mxPoint x="120" y="580" as="targetPoint" />
          </mxGeometry>
        </mxCell>
        <mxCell id="lfAW5IKE7f6hieiJ0yy1-25" value="" style="shape=flexArrow;endArrow=classic;html=1;rounded=0;" edge="1" parent="1">
          <mxGeometry width="50" height="50" relative="1" as="geometry">
            <mxPoint x="690" y="540" as="sourcePoint" />
            <mxPoint x="690" y="580" as="targetPoint" />
          </mxGeometry>
        </mxCell>
        <mxCell id="lfAW5IKE7f6hieiJ0yy1-26" value="" style="shape=flexArrow;endArrow=classic;html=1;rounded=0;" edge="1" parent="1">
          <mxGeometry width="50" height="50" relative="1" as="geometry">
            <mxPoint x="394.5" y="530" as="sourcePoint" />
            <mxPoint x="394.5" y="580" as="targetPoint" />
          </mxGeometry>
        </mxCell>
        <mxCell id="lfAW5IKE7f6hieiJ0yy1-27" value="排列组合--Sandbox" style="text;html=1;strokeColor=none;fillColor=none;align=center;verticalAlign=middle;whiteSpace=wrap;rounded=0;" vertex="1" parent="1">
          <mxGeometry x="540" y="570" width="150" height="30" as="geometry" />
        </mxCell>
        <mxCell id="lfAW5IKE7f6hieiJ0yy1-28" value="EU2&lt;br&gt;TSDB-1" style="rounded=0;whiteSpace=wrap;html=1;" vertex="1" parent="1">
          <mxGeometry x="270" y="570" width="250" height="60" as="geometry" />
        </mxCell>
        <mxCell id="lfAW5IKE7f6hieiJ0yy1-29" value="CN5&lt;br&gt;TSDB-1" style="rounded=0;whiteSpace=wrap;html=1;" vertex="1" parent="1">
          <mxGeometry x="20" y="570" width="220" height="60" as="geometry" />
        </mxCell>
        <mxCell id="lfAW5IKE7f6hieiJ0yy1-30" value="LONGYUAN&lt;br&gt;TSDB-1" style="rounded=0;whiteSpace=wrap;html=1;" vertex="1" parent="1">
          <mxGeometry x="550" y="570" width="260" height="60" as="geometry" />
        </mxCell>
        <mxCell id="lfAW5IKE7f6hieiJ0yy1-31" value="" style="shape=flexArrow;endArrow=classic;html=1;rounded=0;width=7;endSize=5.67;" edge="1" parent="1">
          <mxGeometry width="50" height="50" relative="1" as="geometry">
            <mxPoint x="120" y="540" as="sourcePoint" />
            <mxPoint x="120" y="580" as="targetPoint" />
          </mxGeometry>
        </mxCell>
        <mxCell id="lfAW5IKE7f6hieiJ0yy1-32" value="" style="shape=flexArrow;endArrow=classic;html=1;rounded=0;" edge="1" parent="1">
          <mxGeometry width="50" height="50" relative="1" as="geometry">
            <mxPoint x="690" y="540" as="sourcePoint" />
            <mxPoint x="690" y="580" as="targetPoint" />
          </mxGeometry>
        </mxCell>
        <mxCell id="lfAW5IKE7f6hieiJ0yy1-33" value="" style="shape=flexArrow;endArrow=classic;html=1;rounded=0;" edge="1" parent="1">
          <mxGeometry width="50" height="50" relative="1" as="geometry">
            <mxPoint x="389.5" y="620" as="sourcePoint" />
            <mxPoint x="389.5" y="670" as="targetPoint" />
          </mxGeometry>
        </mxCell>
        <mxCell id="lfAW5IKE7f6hieiJ0yy1-34" value="排列组合--Sandbox" style="text;html=1;strokeColor=none;fillColor=none;align=center;verticalAlign=middle;whiteSpace=wrap;rounded=0;" vertex="1" parent="1">
          <mxGeometry x="535" y="660" width="150" height="30" as="geometry" />
        </mxCell>
        <mxCell id="lfAW5IKE7f6hieiJ0yy1-35" value="EU2&lt;br&gt;TSDB-2" style="rounded=0;whiteSpace=wrap;html=1;" vertex="1" parent="1">
          <mxGeometry x="265" y="660" width="250" height="60" as="geometry" />
        </mxCell>
        <mxCell id="lfAW5IKE7f6hieiJ0yy1-36" value="CN5&lt;br&gt;TSDB-2" style="rounded=0;whiteSpace=wrap;html=1;" vertex="1" parent="1">
          <mxGeometry x="15" y="660" width="220" height="60" as="geometry" />
        </mxCell>
        <mxCell id="lfAW5IKE7f6hieiJ0yy1-37" value="LONGYUAN&lt;br&gt;TSDB-2" style="rounded=0;whiteSpace=wrap;html=1;" vertex="1" parent="1">
          <mxGeometry x="545" y="660" width="260" height="60" as="geometry" />
        </mxCell>
        <mxCell id="lfAW5IKE7f6hieiJ0yy1-38" value="" style="shape=flexArrow;endArrow=classic;html=1;rounded=0;width=7;endSize=5.67;" edge="1" parent="1">
          <mxGeometry width="50" height="50" relative="1" as="geometry">
            <mxPoint x="115" y="630" as="sourcePoint" />
            <mxPoint x="115" y="670" as="targetPoint" />
          </mxGeometry>
        </mxCell>
        <mxCell id="lfAW5IKE7f6hieiJ0yy1-39" value="" style="shape=flexArrow;endArrow=classic;html=1;rounded=0;" edge="1" parent="1">
          <mxGeometry width="50" height="50" relative="1" as="geometry">
            <mxPoint x="685" y="630" as="sourcePoint" />
            <mxPoint x="685" y="670" as="targetPoint" />
          </mxGeometry>
        </mxCell>
        <mxCell id="lfAW5IKE7f6hieiJ0yy1-40" value="" style="shape=flexArrow;endArrow=classic;html=1;rounded=0;" edge="1" parent="1">
          <mxGeometry width="50" height="50" relative="1" as="geometry">
            <mxPoint x="389.5" y="710" as="sourcePoint" />
            <mxPoint x="389.5" y="760" as="targetPoint" />
          </mxGeometry>
        </mxCell>
        <mxCell id="lfAW5IKE7f6hieiJ0yy1-41" value="排列组合--Sandbox" style="text;html=1;strokeColor=none;fillColor=none;align=center;verticalAlign=middle;whiteSpace=wrap;rounded=0;" vertex="1" parent="1">
          <mxGeometry x="535" y="750" width="150" height="30" as="geometry" />
        </mxCell>
        <mxCell id="lfAW5IKE7f6hieiJ0yy1-42" value="EU2&lt;br&gt;TSDB-3" style="rounded=0;whiteSpace=wrap;html=1;" vertex="1" parent="1">
          <mxGeometry x="265" y="750" width="250" height="60" as="geometry" />
        </mxCell>
        <mxCell id="lfAW5IKE7f6hieiJ0yy1-43" value="CN5&lt;br&gt;TSDB-3" style="rounded=0;whiteSpace=wrap;html=1;" vertex="1" parent="1">
          <mxGeometry x="15" y="750" width="220" height="60" as="geometry" />
        </mxCell>
        <mxCell id="lfAW5IKE7f6hieiJ0yy1-44" value="LONGYUAN&lt;br&gt;TSDB-3" style="rounded=0;whiteSpace=wrap;html=1;" vertex="1" parent="1">
          <mxGeometry x="545" y="750" width="260" height="60" as="geometry" />
        </mxCell>
        <mxCell id="lfAW5IKE7f6hieiJ0yy1-45" value="" style="shape=flexArrow;endArrow=classic;html=1;rounded=0;width=7;endSize=5.67;" edge="1" parent="1">
          <mxGeometry width="50" height="50" relative="1" as="geometry">
            <mxPoint x="115" y="720" as="sourcePoint" />
            <mxPoint x="115" y="760" as="targetPoint" />
          </mxGeometry>
        </mxCell>
        <mxCell id="lfAW5IKE7f6hieiJ0yy1-46" value="" style="shape=flexArrow;endArrow=classic;html=1;rounded=0;" edge="1" parent="1">
          <mxGeometry width="50" height="50" relative="1" as="geometry">
            <mxPoint x="685" y="720" as="sourcePoint" />
            <mxPoint x="685" y="760" as="targetPoint" />
          </mxGeometry>
        </mxCell>
        <mxCell id="lfAW5IKE7f6hieiJ0yy1-47" value="" style="curved=1;endArrow=classic;html=1;rounded=0;exitX=0.5;exitY=0;exitDx=0;exitDy=0;entryX=1;entryY=0.5;entryDx=0;entryDy=0;" edge="1" parent="1" source="lfAW5IKE7f6hieiJ0yy1-7" target="lfAW5IKE7f6hieiJ0yy1-30">
          <mxGeometry width="50" height="50" relative="1" as="geometry">
            <mxPoint x="130" y="890" as="sourcePoint" />
            <mxPoint x="180" y="840" as="targetPoint" />
            <Array as="points">
              <mxPoint x="180" y="890" />
              <mxPoint x="940" y="900" />
            </Array>
          </mxGeometry>
        </mxCell>
        <mxCell id="lfAW5IKE7f6hieiJ0yy1-48" value="" style="curved=1;endArrow=classic;html=1;rounded=0;exitX=0.5;exitY=0;exitDx=0;exitDy=0;entryX=1;entryY=0.5;entryDx=0;entryDy=0;" edge="1" parent="1" source="lfAW5IKE7f6hieiJ0yy1-8" target="lfAW5IKE7f6hieiJ0yy1-37">
          <mxGeometry width="50" height="50" relative="1" as="geometry">
            <mxPoint x="300" y="950" as="sourcePoint" />
            <mxPoint x="820" y="610" as="targetPoint" />
            <Array as="points">
              <mxPoint x="190" y="900" />
              <mxPoint x="950" y="910" />
            </Array>
          </mxGeometry>
        </mxCell>
        <mxCell id="lfAW5IKE7f6hieiJ0yy1-50" value="" style="curved=1;endArrow=classic;html=1;rounded=0;exitX=1;exitY=0.5;exitDx=0;exitDy=0;entryX=0.5;entryY=1;entryDx=0;entryDy=0;" edge="1" parent="1" source="lfAW5IKE7f6hieiJ0yy1-9" target="lfAW5IKE7f6hieiJ0yy1-44">
          <mxGeometry width="50" height="50" relative="1" as="geometry">
            <mxPoint x="780" y="970" as="sourcePoint" />
            <mxPoint x="830" y="920" as="targetPoint" />
            <Array as="points">
              <mxPoint x="830" y="970" />
              <mxPoint x="780" y="920" />
            </Array>
          </mxGeometry>
        </mxCell>
        <mxCell id="lfAW5IKE7f6hieiJ0yy1-51" value="Sandbox" style="text;html=1;strokeColor=none;fillColor=none;align=center;verticalAlign=middle;whiteSpace=wrap;rounded=0;" vertex="1" parent="1">
          <mxGeometry x="985" y="1270" width="60" height="30" as="geometry" />
        </mxCell>
      </root>
    </mxGraphModel>
  </diagram>
</mxfile>
